<svg width="102" height="100" viewBox="0 0 102 100" fill="none" xmlns="http://www.w3.org/2000/svg">
<path d="M50.5887 86.811C52.4779 89.872 50.071 94.7807 45.217 97.7708C40.36 100.761 34.8928 100.703 33.0036 97.6415C31.1145 94.5805 33.5214 89.6718 38.3753 86.6816C43.2323 83.6915 48.6995 83.75 50.5887 86.811Z" fill="#B41D38"/>
<path d="M68.4934 33.7274C63.6826 33.7274 59.3403 32.5726 56.2399 30.7187C59.3403 28.8649 63.6826 27.7101 68.4934 27.7101C73.3042 27.7101 77.6465 28.8649 80.7468 30.7187C77.6465 32.5726 73.3042 33.7274 68.4934 33.7274ZM84.8827 12.8516C84.6916 12.9008 84.5067 12.9501 84.331 12.9994C72.2841 16.6085 61.5592 23.793 52.6465 31.116V31.1468C60.986 42.0697 67.3161 59.3394 67.3161 78.6139C67.3161 85.9461 66.2683 93.1706 64.6226 99.9978C86.174 94.0606 102.002 74.3365 102.002 50.914C101.999 35.7752 95.3826 22.1793 84.8827 12.8516Z" fill="#B41D38"/>
<path d="M39.1048 37.3975C37.6471 38.6323 37.2157 40.4985 38.1433 41.5671C39.0709 42.6357 41.0063 42.5002 42.464 41.2653C43.9218 40.0304 44.3532 38.1643 43.4256 37.0957C42.498 36.0271 40.5626 36.1626 39.1048 37.3975Z" fill="#B41D38"/>
<path d="M38.5071 29.3105C35.3421 32.8488 31.4528 33.6433 27.1782 33.6433C22.8082 33.6433 18.8295 31.9989 15.8493 29.3105H38.5071ZM51.6112 40.8185L50.5048 41.3236C50.5048 42.2074 50.5048 42.9957 50.5048 43.587C50.5048 46.2538 50.7483 47.5903 47.463 48.7882C45.1763 49.6228 32.4975 54.3097 29.8933 55.2675C27.8593 56.0158 27.169 56.0466 24.799 53.7523C23.8868 52.8685 24.2351 51.1132 25.1873 50.4819C34.4853 44.3168 43.8511 18.2798 65.8432 6.56237L66.4195 7.56013C56.6993 14.8554 49.2905 24.8422 47.5986 28.3959C54.9642 22.8344 67.5906 15.0648 84.0631 12.1362C75.1658 4.56995 63.6427 0 51.0472 0C22.9068 0 0.0917969 22.7943 0.0917969 50.9161C0.0917969 60.4564 2.72061 69.3807 7.28792 77.0117C26.6543 75.3949 45.1855 80.8826 49.0101 82.1051L49.0224 82.1082C49.1488 82.1482 49.2597 82.1852 49.3553 82.216L51.6143 82.9458V57.2075C51.5834 57.2044 51.5865 57.1829 51.6143 57.149V57.2075C56.4805 57.7618 61.6981 63.7607 61.7166 69.9289C61.7258 73.4241 60.1325 78.0833 59.2511 80.396L59.7627 80.4484C60.9091 78.0802 63.0541 73.0484 63.0325 68.6078C62.9771 57.4878 52.7391 53.1765 51.6143 44.0304V40.8185H51.6112Z" fill="#B41D38"/>
</svg>
