<svg width="223" height="100" viewBox="0 0 223 100" fill="none" xmlns="http://www.w3.org/2000/svg" id="null" class="logo-white svg-convert svg-converted">
<g clip-path="url(#clip0_601_1731)">
<path d="M0 98.1338L5.90792 81.7263H8.77096L14.6789 98.1338H12.0501L10.5523 93.7917H4.13585L2.62882 98.1338H0ZM9.83112 91.7069L7.40878 84.7042H7.27934L4.857 91.7069H9.83112Z" fill="white"></path>
<path d="M20.2324 98.1338V81.7263H25.7181C30.5536 81.7263 33.4474 84.8027 33.4474 89.9054C33.4474 95.0328 30.5536 98.1338 25.5486 98.1338H20.2324ZM25.413 95.9689C29.1575 95.9689 31.0097 93.7886 31.0097 89.9054C31.0097 86.0345 29.1575 83.8881 25.564 83.8881H22.7102V95.9689H25.413Z" fill="white"></path>
<path d="M42.7177 81.7263L47.9445 94.4815H48.1356L53.3624 81.7263H56.3703V98.1338H54.0127V86.2593H53.8617L49.0201 98.1092H47.0631L42.2215 86.2532H42.0705V98.1338H39.7129V81.7263H42.7177Z" fill="white"></path>
<path d="M61.9238 98.1338L67.8317 81.7263H70.6948L76.6027 98.1338H73.9739L72.4761 93.7917H66.0628L64.5557 98.1338H61.9238ZM71.7549 91.7069L69.3326 84.7042H69.2032L66.7808 91.7069H71.7549Z" fill="white"></path>
<path d="M82.156 81.7263H92.3385V83.8573H84.6338V88.8553H91.6081V90.9771H84.6338V98.1307H82.156V81.7263Z" fill="white"></path>
<path d="M171.589 86.811C173.478 89.872 171.071 94.7807 166.217 97.7708C161.36 100.761 155.893 100.703 154.004 97.6415C152.114 94.5805 154.521 89.6718 159.375 86.6816C164.232 83.6915 169.7 83.75 171.589 86.811Z" fill="white"></path>
<path d="M189.494 33.7274C184.683 33.7274 180.341 32.5726 177.24 30.7187C180.341 28.8649 184.683 27.7101 189.494 27.7101C194.305 27.7101 198.647 28.8649 201.747 30.7187C198.647 32.5726 194.305 33.7274 189.494 33.7274ZM205.883 12.8516C205.692 12.9008 205.507 12.9501 205.332 12.9994C193.285 16.6085 182.56 23.793 173.647 31.116V31.1468C181.986 42.0697 188.317 59.3394 188.317 78.6139C188.317 85.9461 187.269 93.1706 185.623 99.9978C207.174 94.0606 223.003 74.3365 223.003 50.914C223 35.7752 216.383 22.1793 205.883 12.8516Z" fill="white"></path>
<path d="M160.105 37.3994C158.648 38.6343 158.216 40.5005 159.144 41.569C160.071 42.6376 162.007 42.5021 163.465 41.2672C164.922 40.0324 165.354 38.1662 164.426 37.0976C163.498 36.029 161.563 36.1645 160.105 37.3994Z" fill="white"></path>
<path d="M159.508 29.3105C156.343 32.8488 152.453 33.6433 148.179 33.6433C143.809 33.6433 139.83 31.9989 136.85 29.3105H159.508ZM172.612 40.8185L171.505 41.3236C171.505 42.2074 171.505 42.9957 171.505 43.587C171.505 46.2538 171.749 47.5903 168.463 48.7882C166.177 49.6228 153.498 54.3097 150.894 55.2675C148.86 56.0158 148.169 56.0466 145.8 53.7523C144.887 52.8685 145.236 51.1132 146.188 50.4819C155.486 44.3168 164.852 18.2798 186.844 6.56237L187.42 7.56013C177.7 14.8554 170.291 24.8422 168.599 28.3959C175.965 22.8344 188.591 15.0648 205.064 12.1362C196.166 4.56995 184.643 0 172.048 0C143.907 0 121.092 22.7943 121.092 50.9161C121.092 60.4564 123.721 69.3807 128.288 77.0117C147.655 75.3949 166.186 80.8826 170.011 82.1051L170.023 82.1082C170.149 82.1482 170.26 82.1852 170.356 82.216L172.615 82.9458V57.2075C172.584 57.2044 172.587 57.1829 172.615 57.149V57.2075C177.481 57.7618 182.699 63.7607 182.717 69.9289C182.726 73.4241 181.133 78.0833 180.252 80.396L180.763 80.4484C181.91 78.0802 184.055 73.0484 184.033 68.6078C183.978 57.4878 173.74 53.1765 172.615 44.0304V40.8185H172.612Z" fill="white"></path>
<path d="M8.90658 70.7512C7.79711 70.7512 6.79859 70.6711 5.91101 70.514C5.02036 70.3539 4.25914 70.0798 3.63044 69.6826C2.99866 69.2884 2.51481 68.7618 2.17272 68.1028C1.83063 67.4438 1.66113 66.6123 1.66113 65.6115V60.1885H3.94171V64.4998C3.94171 65.3713 4.04033 66.0703 4.24373 66.5939C4.44405 67.1174 4.7923 67.5177 5.2854 67.7949C5.78157 68.072 6.45034 68.2537 7.29168 68.343C8.13303 68.4323 9.19319 68.4754 10.466 68.4754H24.433C24.1741 68.2167 23.9399 67.9088 23.7334 67.5577C23.5269 67.2036 23.3543 66.8279 23.2126 66.4276C23.0708 66.0272 22.9629 65.6115 22.8859 65.1835C22.8088 64.7523 22.7718 64.3212 22.7718 63.8839C22.7718 62.917 22.9321 61.987 23.2495 61.0939C23.567 60.1978 24.0262 59.4063 24.6302 58.7165C25.2312 58.0267 25.9646 57.4786 26.8306 57.0721C27.6966 56.6656 28.6798 56.4624 29.7738 56.4624C30.6706 56.4624 31.4596 56.5701 32.1438 56.7888C32.8279 57.0074 33.4197 57.3031 33.922 57.6818C34.4213 58.0575 34.8373 58.501 35.1671 59.006C35.4968 59.5141 35.7588 60.05 35.9529 60.6135C36.1471 61.1801 36.2858 61.7652 36.369 62.3719C36.4522 62.9785 36.4923 63.5636 36.4923 64.1303V70.7542H8.90658V70.7512ZM25.0308 63.7207C25.0308 64.5214 25.1603 65.2204 25.4192 65.8147C25.678 66.4091 26.0386 66.9049 26.4978 67.2991C26.957 67.6932 27.4963 67.9889 28.1158 68.1829C28.7352 68.3769 29.4102 68.4754 30.1406 68.4754H34.2086V64.235C34.2086 63.5883 34.1439 62.9354 34.0145 62.2826C33.885 61.6297 33.6508 61.0385 33.3149 60.515C32.979 59.9914 32.5259 59.5634 31.9527 59.2339C31.3795 58.9044 30.646 58.7381 29.7522 58.7381C29.0218 58.7381 28.3654 58.8613 27.7799 59.1076C27.1974 59.354 26.7012 59.6989 26.2944 60.1423C25.8876 60.5827 25.5763 61.1124 25.3575 61.7252C25.1387 62.338 25.0308 63.0032 25.0308 63.7207ZM27.9124 50.2387C27.9124 49.8045 28.0634 49.435 28.3623 49.1332C28.6644 48.8314 29.0311 48.6836 29.4687 48.6836C29.6814 48.6836 29.8878 48.7236 30.0882 48.8068C30.2885 48.8899 30.4611 49.0008 30.609 49.1424C30.7569 49.2841 30.874 49.4504 30.9634 49.6382C31.0528 49.8261 31.0959 50.0262 31.0959 50.2387C31.0959 50.4512 31.0528 50.6545 30.9634 50.8485C30.874 51.0425 30.7569 51.2149 30.609 51.3597C30.4611 51.5075 30.2885 51.6214 30.0882 51.7046C29.8878 51.7877 29.6814 51.8277 29.4687 51.8277C29.0311 51.8277 28.6644 51.6707 28.3623 51.3597C28.0634 51.0486 27.9124 50.676 27.9124 50.2387Z" fill="white"></path>
<path d="M48.1232 69.5504C48.1232 69.8091 48.0955 70.0154 48.0431 70.1694C47.9907 70.3234 47.9106 70.4435 47.8058 70.5328C47.701 70.6221 47.5685 70.6806 47.4082 70.7083C47.248 70.7391 47.0631 70.7514 46.8504 70.7514H46.1262C45.3711 70.7514 44.687 70.6714 44.0737 70.5143C43.4604 70.3542 42.9365 70.0893 42.4988 69.7198C42.0612 69.3503 41.7222 68.8545 41.4818 68.2355C41.2414 67.6165 41.1182 66.8559 41.1182 65.9474V44.9238H43.3987V65.1191C43.3987 65.7196 43.4388 66.2338 43.522 66.665C43.6052 67.0961 43.7624 67.441 43.9997 67.7058C44.237 67.9707 44.5575 68.1647 44.9643 68.2879C45.3711 68.411 45.9043 68.4726 46.5638 68.4726H46.8473C47.2603 68.4726 47.5747 68.5434 47.7935 68.6851C48.0123 68.8268 48.1232 69.1162 48.1232 69.5504Z" fill="white"></path>
<path d="M46.8504 70.7518C46.4375 70.7518 46.1231 70.6748 45.9043 70.5209C45.6855 70.3669 45.5776 70.0743 45.5776 69.6371C45.5776 69.3784 45.6054 69.172 45.6578 69.0181C45.7102 68.8641 45.7903 68.7471 45.8951 68.6639C45.9999 68.5808 46.1324 68.5284 46.2926 68.5038C46.4529 68.4792 46.6378 68.4699 46.8504 68.4699H48.2311C48.5855 68.4699 48.9399 68.4083 49.3005 68.2852C49.6611 68.162 50.0093 67.9495 50.3514 67.6477C50.6935 67.3459 51.0233 66.9394 51.3407 66.419C51.6581 65.9016 51.9602 65.2426 52.2437 64.4389C52.7614 62.9792 53.3377 61.7905 53.9664 60.879C54.5982 59.9675 55.2485 59.253 55.9203 58.7418C56.5922 58.2307 57.2671 57.8827 57.9451 57.6979C58.6231 57.5162 59.2672 57.4238 59.8805 57.4238C60.765 57.4238 61.591 57.5963 62.3553 57.9443C63.1226 58.2922 63.7822 58.7819 64.3369 59.4101C64.8916 60.0414 65.3262 60.7928 65.6467 61.6704C65.9641 62.5481 66.1244 63.512 66.1244 64.559C66.1244 65.4767 65.998 66.3389 65.7453 67.1396C65.4926 67.9403 65.1104 68.6362 64.605 69.2244C64.0965 69.8126 63.4647 70.2776 62.7035 70.6194C61.9423 70.9612 61.0609 71.1306 60.0593 71.1306C58.9159 71.1306 57.7571 70.952 56.586 70.5917C55.4118 70.2314 54.1729 69.5939 52.8631 68.6763C52.5457 69.1351 52.2098 69.5046 51.8554 69.7818C51.501 70.0589 51.1311 70.2683 50.7428 70.41C50.3545 70.5517 49.957 70.644 49.5501 70.6841C49.1433 70.7241 48.7273 70.7457 48.3051 70.7457H46.8504V70.7518ZM63.8407 64.4635C63.8407 63.8507 63.7483 63.2564 63.5664 62.6805C63.3846 62.1046 63.1165 61.5965 62.7621 61.1623C62.4076 60.7281 61.9762 60.377 61.4615 60.1122C60.9499 59.8474 60.3613 59.715 59.7018 59.715C59.147 59.715 58.6108 59.8351 58.0931 60.0783C57.5753 60.3185 57.073 60.7158 56.5891 61.2609C56.1053 61.809 55.6337 62.5234 55.1745 63.4073C54.7153 64.2911 54.2654 65.3689 53.8308 66.6407C54.8571 67.3459 55.868 67.8971 56.8634 68.2913C57.8588 68.6855 58.8635 68.8826 59.8774 68.8826C60.4784 68.8826 61.0239 68.8025 61.5139 68.6455C62.0039 68.4853 62.42 68.2297 62.7682 67.8756C63.1165 67.5214 63.3815 67.0657 63.5633 66.5052C63.7513 65.9448 63.8407 65.2642 63.8407 64.4635Z" fill="white"></path>
<path d="M82.2301 67.0253C82.2301 67.555 82.1315 68.0508 81.9373 68.5097C81.7432 68.9685 81.4535 69.3627 81.0713 69.6922C80.6892 70.0217 80.2084 70.2804 79.629 70.4682C79.0527 70.6561 78.3839 70.7515 77.632 70.7515H69.1445V68.4727H77.5241C78.0295 68.4727 78.4394 68.4234 78.7538 68.3218C79.065 68.2233 79.3085 68.097 79.478 67.9492C79.6475 67.8014 79.7646 67.6412 79.8232 67.4626C79.8817 67.2871 79.9125 67.1208 79.9125 66.9668C79.9125 66.662 79.8632 66.354 79.7615 66.0491C79.6598 65.7443 79.4595 65.3316 79.1606 64.8112C78.8585 64.2938 78.4332 63.6194 77.8785 62.788C77.3238 61.9565 76.5872 60.8725 75.6688 59.5268L74.4299 57.6884L76.4978 56.3457L78.6736 59.7732C78.9572 60.232 79.3023 60.7709 79.7091 61.3899C80.1159 62.0089 80.5042 62.6463 80.8772 63.3053C81.247 63.9643 81.5675 64.6203 81.8325 65.267C82.0976 65.9229 82.2301 66.508 82.2301 67.0253Z" fill="white"></path>
<path d="M88.9332 44.9238V70.7545H86.6526V44.9238H88.9332Z" fill="white"></path>
<path d="M90.2458 42.6622H85.3364V41.4458H86.5414C86.4182 41.2457 86.3257 41.0363 86.261 40.8176C86.1963 40.599 86.1624 40.3557 86.1624 40.0847C86.1624 39.6936 86.2271 39.3487 86.3596 39.05C86.489 38.7544 86.6616 38.5049 86.8774 38.3047C87.09 38.1046 87.3366 37.9537 87.6108 37.8521C87.8851 37.7504 88.1686 37.7012 88.4553 37.7012C88.7511 37.7012 89.0131 37.7196 89.235 37.7597C89.4569 37.7997 89.6264 37.8582 89.7404 37.9352V39.1639C89.3829 39.0069 88.9977 38.9299 88.5878 38.9299C88.369 38.9299 88.1841 38.9638 88.03 39.0346C87.8759 39.1054 87.7495 39.1947 87.6509 39.3025C87.5492 39.4103 87.4752 39.5365 87.429 39.6813C87.3828 39.826 87.3581 39.9769 87.3581 40.134C87.3581 40.5004 87.4722 40.8114 87.6971 41.064C87.9252 41.3165 88.2734 41.4427 88.745 41.4427H90.252V42.6622H90.2458Z" fill="white"></path>
</g>
<defs>
<clipPath id="clip0_601_1731">
<rect width="223" height="100" fill="white"></rect>
</clipPath>
</defs>
</svg>